<svg xmlns="http://www.w3.org/2000/svg" viewBox="0 0 1000 1000" width="1000" height="1000"><rect width="1000" height="1000" fill="#efe9e1"/><defs><filter id="s" x="-20%" y="-20%" width="140%" height="140%"><feGaussianBlur stdDeviation="14"/></filter></defs><path d="M250 215 Q500 250 750 215 Q800 210 785 260 Q750 500 785 740 Q800 790 750 785 Q500 750 250 785 Q200 790 215 740 Q250 500 215 260 Q200 210 250 215 Z" transform="translate(12 18)" fill="#000" opacity=".25" filter="url(#s)"/><path d="M250 215 Q500 250 750 215 Q800 210 785 260 Q750 500 785 740 Q800 790 750 785 Q500 750 250 785 Q200 790 215 740 Q250 500 215 260 Q200 210 250 215 Z" fill="#fff"/></svg>