<svg xmlns="http://www.w3.org/2000/svg" viewBox="0 0 400 400" width="800" height="800">
<defs><pattern id="p" width="80" height="80" patternUnits="userSpaceOnUse"><rect width="80" height="80" fill="#BFDBFE"/><ellipse cx="20" cy="20" rx="12" ry="9" fill="#60A5FA"/><ellipse cx="20" cy="20" rx="12" ry="9" fill="none" stroke="#111827" stroke-width="5" stroke-dasharray="14 6"/><ellipse cx="60" cy="56" rx="11" ry="8" fill="#60A5FA"/><ellipse cx="60" cy="56" rx="11" ry="8" fill="none" stroke="#111827" stroke-width="5" stroke-dasharray="12 7"/><circle cx="58" cy="16" r="4" fill="#111827"/><circle cx="18" cy="62" r="4" fill="#111827"/></pattern>
<clipPath id="g"><path d="M152 48 L132 48 Q134 118 104 150 L108 352 L292 352 L296 150 Q266 118 268 48 L248 48 Q200 112 152 48 Z"/></clipPath>
<linearGradient id="shade" x1="0" y1="0" x2="1" y2="0"><stop offset="0" stop-color="#000" stop-opacity=".16"/><stop offset=".3" stop-color="#fff" stop-opacity=".12"/><stop offset=".7" stop-color="#fff" stop-opacity="0"/><stop offset="1" stop-color="#000" stop-opacity=".18"/></linearGradient>
</defs>
<ellipse cx="200" cy="374" rx="140" ry="9" fill="#000" opacity=".07"/>
<g clip-path="url(#g)"><rect width="400" height="400" fill="url(#p)"/><rect width="400" height="400" fill="url(#shade)"/></g>
<g fill="none" stroke="#1d1d1f" stroke-opacity=".35" stroke-width="2" stroke-linejoin="round"><path d="M152 48 L132 48 Q134 118 104 150 L108 352 L292 352 L296 150 Q266 118 268 48 L248 48 Q200 112 152 48 Z"/><path d="M152 48 Q200 112 248 48"/><path d="M108 340 L292 340"/></g>

</svg>