<svg xmlns="http://www.w3.org/2000/svg" viewBox="0 0 400 400" width="800" height="800"><defs><clipPath id="c"><path d="M158 58 Q200 88 242 58 L292 70 C316 80 330 110 338 150 L352 318 C352 326 346 330 340 330 L312 332 C306 332 302 328 302 322 L290 190 L292 350 C236 358 164 358 108 350 L110 190 L98 322 C98 328 94 332 88 332 L60 330 C54 330 48 326 48 318 L62 150 C70 110 84 80 108 70 Z"/></clipPath><linearGradient id="v" x1="0" y1="0" x2="1" y2="0"><stop offset="0" stop-color="#000" stop-opacity=".16"/><stop offset=".18" stop-color="#000" stop-opacity=".02"/><stop offset=".42" stop-color="#fff" stop-opacity=".10"/><stop offset=".62" stop-color="#fff" stop-opacity="0"/><stop offset=".86" stop-color="#000" stop-opacity=".04"/><stop offset="1" stop-color="#000" stop-opacity=".2"/></linearGradient><linearGradient id="h" x1="0" y1="0" x2="0" y2="1"><stop offset="0" stop-color="#fff" stop-opacity=".08"/><stop offset=".75" stop-color="#000" stop-opacity="0"/><stop offset="1" stop-color="#000" stop-opacity=".1"/></linearGradient><filter id="b" x="-20%" y="-20%" width="140%" height="140%"><feGaussianBlur stdDeviation="3.2"/></filter><filter id="s" x="-30%" y="-30%" width="160%" height="160%"><feGaussianBlur stdDeviation="7"/></filter><pattern id="rib" width="3" height="3" patternUnits="userSpaceOnUse"><rect width="1.4" height="3" fill="#000" opacity=".10"/></pattern></defs><ellipse cx="200" cy="364" rx="118" ry="7" fill="#2b2622" opacity=".16" filter="url(#s)"/><path d="M158 58 Q200 88 242 58 L292 70 C316 80 330 110 338 150 L352 318 C352 326 346 330 340 330 L312 332 C306 332 302 328 302 322 L290 190 L292 350 C236 358 164 358 108 350 L110 190 L98 322 C98 328 94 332 88 332 L60 330 C54 330 48 326 48 318 L62 150 C70 110 84 80 108 70 Z" fill="#556050"/><path d="M156 58 Q200 62 244 58 Q200 92 156 58 Z" fill="#556050"/><path d="M156 58 Q200 62 244 58 Q200 92 156 58 Z" fill="#000" opacity=".45"/><g clip-path="url(#c)"><rect width="400" height="400" fill="url(#v)"/><rect width="400" height="400" fill="url(#h)"/><path d="M156 58 Q200 92 244 58 L234 54 Q200 80 166 54 Z" fill="#000" opacity=".07"/><path d="M156 58 Q200 92 244 58 L234 54 Q200 80 166 54 Z" fill="url(#rib)"/><path d="M50 310 L99 314 L97 331 L49 328 Z" fill="#000" opacity=".07"/><path d="M50 310 L99 314 L97 331 L49 328 Z" fill="url(#rib)"/><path d="M301 314 L350 310 L351 328 L303 331 Z" fill="#000" opacity=".07"/><path d="M301 314 L350 310 L351 328 L303 331 Z" fill="url(#rib)"/><path d="M108 336 C164 343 236 343 292 336 L292 350 C236 358 164 358 108 350 Z" fill="#000" opacity=".07"/><path d="M108 336 C164 343 236 343 292 336 L292 350 C236 358 164 358 108 350 Z" fill="url(#rib)"/><path d="M130 200 C140 240 134 290 140 330" fill="none" stroke="#000" stroke-opacity=".28" stroke-width="7" stroke-linecap="round" filter="url(#b)"/><path d="M130 200 C140 240 134 290 140 330" fill="none" stroke="#fff" stroke-opacity=".05" stroke-width="3" stroke-linecap="round" transform="translate(5 0)" filter="url(#b)"/><path d="M268 205 C260 245 266 292 258 330" fill="none" stroke="#000" stroke-opacity=".28" stroke-width="7" stroke-linecap="round" filter="url(#b)"/><path d="M268 205 C260 245 266 292 258 330" fill="none" stroke="#fff" stroke-opacity=".05" stroke-width="3" stroke-linecap="round" transform="translate(5 0)" filter="url(#b)"/><path d="M74 190 C80 230 74 270 78 302" fill="none" stroke="#000" stroke-opacity=".28" stroke-width="7" stroke-linecap="round" filter="url(#b)"/><path d="M74 190 C80 230 74 270 78 302" fill="none" stroke="#fff" stroke-opacity=".05" stroke-width="3" stroke-linecap="round" transform="translate(5 0)" filter="url(#b)"/><path d="M326 190 C320 230 326 270 322 302" fill="none" stroke="#000" stroke-opacity=".28" stroke-width="7" stroke-linecap="round" filter="url(#b)"/><path d="M326 190 C320 230 326 270 322 302" fill="none" stroke="#fff" stroke-opacity=".05" stroke-width="3" stroke-linecap="round" transform="translate(5 0)" filter="url(#b)"/></g><g fill="none" stroke="#fff" stroke-opacity=".12" stroke-width="1" stroke-dasharray="3 2.5"><path d="M110 190 C108 150 108 110 108 70"/><path d="M290 190 C292 150 292 110 292 70"/></g><g fill="none" stroke="#000" stroke-opacity=".35" stroke-width="1.1" stroke-linejoin="round"><path d="M158 58 Q200 88 242 58 L292 70 C316 80 330 110 338 150 L352 318 C352 326 346 330 340 330 L312 332 C306 332 302 328 302 322 L290 190 L292 350 C236 358 164 358 108 350 L110 190 L98 322 C98 328 94 332 88 332 L60 330 C54 330 48 326 48 318 L62 150 C70 110 84 80 108 70 Z"/></g></svg>