<svg xmlns="http://www.w3.org/2000/svg" viewBox="0 0 400 400">
<defs><clipPath id="g"><path d="M150 58 L108 70 L42 118 L74 178 L112 155 L112 352 L288 352 L288 155 L326 178 L358 118 L292 70 L250 58 Q200 92 150 58 Z"/></clipPath>
<linearGradient id="shade" x1="0" y1="0" x2="1" y2="0"><stop offset="0" stop-color="#000" stop-opacity=".2"/><stop offset=".3" stop-color="#fff" stop-opacity=".15"/><stop offset=".7" stop-color="#fff" stop-opacity="0"/><stop offset="1" stop-color="#000" stop-opacity=".22"/></linearGradient></defs>
<g clip-path="url(#g)"><rect width="400" height="400" fill="url(#shade)"/></g>
<g fill="none" stroke="#1d1d1f" stroke-opacity=".45" stroke-width="2" stroke-linejoin="round"><path d="M150 58 L108 70 L42 118 L74 178 L112 155 L112 352 L288 352 L288 155 L326 178 L358 118 L292 70 L250 58 Q200 92 150 58 Z"/><path d="M150 58 Q200 100 250 58"/><path d="M112 340 L288 340"/></g></svg>